<svg xmlns="http://www.w3.org/2000/svg" xmlns:xlink="http://www.w3.org/1999/xlink" width="39" height="39" viewBox="0 0 39 39">
  <metadata><?xpacket begin="﻿" id="W5M0MpCehiHzreSzNTczkc9d"?>
<x:xmpmeta xmlns:x="adobe:ns:meta/" x:xmptk="Adobe XMP Core 5.6-c138 79.159824, 2016/09/14-01:09:01        ">
   <rdf:RDF xmlns:rdf="http://www.w3.org/1999/02/22-rdf-syntax-ns#">
      <rdf:Description rdf:about=""/>
   </rdf:RDF>
</x:xmpmeta>
                                                                                                    
                                                                                                    
                                                                                                    
                                                                                                    
                                                                                                    
                                                                                                    
                                                                                                    
                                                                                                    
                                                                                                    
                                                                                                    
                                                                                                    
                                                                                                    
                                                                                                    
                                                                                                    
                                                                                                    
                                                                                                    
                                                                                                    
                                                                                                    
                                                                                                    
                                                                                                    
                           
<?xpacket end="w"?></metadata>
<defs>
    <style>
      .cls-1 {
        fill: #ececec;
        fill-rule: evenodd;
        filter: url(#filter);
      }
    </style>
    <filter id="filter" x="0" y="0" width="39" height="39" filterUnits="userSpaceOnUse">
      <feFlood result="flood" flood-color="#ececec"/>
      <feComposite result="composite" operator="in" in2="SourceGraphic"/>
      <feBlend result="blend" in2="SourceGraphic"/>
    </filter>
  </defs>
  <path id="Coffee_icon_divider" data-name="Coffee icon divider" class="cls-1" d="M37.781,36.563H8.531a1.219,1.219,0,1,0,0,2.437h29.25A1.219,1.219,0,1,0,37.781,36.563Zm0-24.375H2.438A2.436,2.436,0,0,0,0,14.625V19.5a7.313,7.313,0,0,0,7.313,7.313H9.75V26.7A15.833,15.833,0,0,0,39,18.281V13.406A1.218,1.218,0,0,0,37.781,12.187ZM7.312,24.375A4.875,4.875,0,0,1,2.438,19.5V15.844a1.218,1.218,0,0,1,1.219-1.219H7.312v3.656a15.776,15.776,0,0,0,1.219,6.094H7.312Zm29.25-6.094a13.406,13.406,0,1,1-26.813,0V14.625H36.563v3.656ZM23.156,9.75a1.218,1.218,0,0,0,1.219-1.219V1.219a1.219,1.219,0,1,0-2.437,0V8.531A1.218,1.218,0,0,0,23.156,9.75Zm-7.313,0a1.218,1.218,0,0,0,1.219-1.219V3.656a1.219,1.219,0,0,0-2.437,0V8.531A1.218,1.218,0,0,0,15.844,9.75Zm14.625,0a1.218,1.218,0,0,0,1.219-1.219V6.094a1.219,1.219,0,1,0-2.437,0V8.531A1.218,1.218,0,0,0,30.469,9.75Z"/>
</svg>
